<svg xmlns="http://www.w3.org/2000/svg" xmlns:xlink="http://www.w3.org/1999/xlink" width="178" height="42.001" viewBox="0 0 178 42.001"><defs><clipPath id="a"><rect width="178" height="42" fill="none"/></clipPath></defs><path d="M0,26.849v15.43H4.22V34.695l5.633,7.584h5.275L9.049,34.542l6.345-7.6H10.12l-5.9,7.269v-7.36Z" transform="translate(0 -0.279)" fill="#004497"/><rect width="4.286" height="11.737" transform="translate(29.199 30.263)" fill="#004497"/><g transform="translate(0 0)"><g clip-path="url(#a)"><path d="M15.119,42l3.787-15.312h2.312l5.825-20.2L30.74.669a1.1,1.1,0,0,1,2.033.1c1.018,1.66,3.146,5.719,3.146,5.719l6.007,20.2h2.127L47.389,42H42.951L39.338,26.876H37.305L32.591,6.483l-1.019-1.57-.922,1.57L25.932,26.855h-2.4L19.561,42Z" transform="translate(-0.028 0)" fill="#004497"/><path d="M59.359,36.292a4.613,4.613,0,0,0,4.22-4.559,5.183,5.183,0,0,0-4.754-4.774H47.44V42.176h4.334V33.935l6.98,8.214h6Zm-1.354-2.586H51.817V30.419h6.189a1.644,1.644,0,1,1,0,3.287" transform="translate(-0.087 -0.178)" fill="#004497"/><rect width="4.333" height="15.163" transform="translate(64.663 26.807)" fill="#004497"/><path d="M84.168,28.011H82.046v-.946H80.3v.946h-2.32V29.4h.977a2.281,2.281,0,0,0-.2.947,2.322,2.322,0,0,0,4.643,0,2.28,2.28,0,0,0-.2-.947h.978Zm-2.11,2.336a.984.984,0,1,1-1.24-.947h.506a.982.982,0,0,1,.734.947" transform="translate(-0.143 -0.179)" fill="#004497"/><path d="M87.033,28.021v0c-.034,0-.068-.006-.107-.006a1.408,1.408,0,0,0-1.411,1.4l0,.015h0V34.2H79.551V32.514H78v1.54h0a1.573,1.573,0,0,0,1.421,1.56v.006h6.194v0H87.09V29.435h1.5V28.021Z" transform="translate(-0.143 -0.185)" fill="#004497"/><path d="M167.742,29.534a1.434,1.434,0,0,0,.012-.172,1.356,1.356,0,0,0-1.359-1.353c-.044,0-.091,0-.133.008h-8.824v1.475h8.735v1.854h-8.692V32.78h4.167v2.872h1.793V32.78h3.188v-.011h1.113Z" transform="translate(-0.289 -0.185)" fill="#004497"/><path d="M98.561,28.025v-.013H89.478v1.422h8.668v.82H89.4v1.39h4.144v.8H89.4v1.436h8.741v1.665H99.8V33.755h-.008a1.358,1.358,0,0,0-1.328-1.3v-.01H95.346v-.8h4.446V31h.02V29.489c0-.042.006-.08.006-.122a1.356,1.356,0,0,0-1.257-1.342" transform="translate(-0.164 -0.185)" fill="#004497"/><path d="M111.511,29.367V28.02h-1.9a.809.809,0,0,0-.12-.008,1.165,1.165,0,0,0-1.165,1.057h-.014v2.347a2.432,2.432,0,0,0-.943-.188,2.459,2.459,0,0,0-1.352.4,2.2,2.2,0,0,1-.638.6,2.462,2.462,0,1,0,4.456,1.451c0-.058,0-.111-.01-.165V29.367Zm-4.154,5.277a.979.979,0,1,1,.957-1.194v.384h.011a.986.986,0,0,1-.968.81" transform="translate(-0.192 -0.185)" fill="#004497"/><path d="M106.012,31.626a2.175,2.175,0,0,0,.173-2.229h1.233V28.008h-2.3V27.02h-1.747v.988H101.1V29.4h1.115a2.208,2.208,0,0,0,3.164,2.831,2.458,2.458,0,0,1,.637-.6m-1.822-.263a.978.978,0,1,1,.983-.977.982.982,0,0,1-.983.977" transform="translate(-0.185 -0.179)" fill="#004497"/><path d="M133.493,32.151H123.26v1.433H127.6v2.05h1.572v-2.05h4.319Z" transform="translate(-0.226 -0.212)" fill="#004497"/><path d="M121.01,28.022h-.057v-.009h-8.409V29.4h8.125v1.379h-3.446V29.664h-1.747v1.118H112.59v1.433h2.493a2.854,2.854,0,1,0,5.443,1.21,2.83,2.83,0,0,0-.269-1.21h.412v.006h1.7V29.179h-.02a1.356,1.356,0,0,0-1.345-1.157m-1.993,5.426a1.288,1.288,0,1,1-1.645-1.233h.711a1.284,1.284,0,0,1,.934,1.233" transform="translate(-0.206 -0.185)" fill="#004497"/><path d="M128.3,31.8a2.756,2.756,0,1,0-2.772-2.755A2.765,2.765,0,0,0,128.3,31.8m.017-4.086A1.281,1.281,0,1,1,127.028,29a1.284,1.284,0,0,1,1.286-1.282" transform="translate(-0.23 -0.174)" fill="#004497"/><path d="M137.657,31.431a1.79,1.79,0,0,0,1.756-.746,2.731,2.731,0,0,0,2.163.757v0h3.163V30.016h-3.486s-.875-.084-.809-.7h4.278V27.881H134.36v1.436h4.073c-.007.161-.118.5-.814.684H134.36v1.436h3.3Z" transform="translate(-0.246 -0.184)" fill="#004497"/><path d="M134.4,32.367V33.8h4.13V35.68h1.834V33.8h4.4V32.367Z" transform="translate(-0.246 -0.214)" fill="#004497"/><path d="M155.6,28.977h-.016a1.356,1.356,0,0,0-1.315-1.175v-.009h-3.4a2.755,2.755,0,1,0,.735,3.466h2.34v2.762h-5.688V32.74h-1.788V34.3h.012a1.454,1.454,0,0,0,1.38,1.262v.021h7.061v-.011h.681Zm-6.426,2.214a1.28,1.28,0,1,1,1.286-1.28,1.284,1.284,0,0,1-1.286,1.28m2.745-1.412a2.921,2.921,0,0,0-.08-.512h2.1v.512Z" transform="translate(-0.268 -0.18)" fill="#004497"/><path d="M174.282,30.923a2.473,2.473,0,0,0,.264-1.113,2.523,2.523,0,0,0-5.046,0,2.487,2.487,0,0,0,.265,1.113H169V32.13h2.018v1.164h1.7V32.13h3.171V30.923Zm-2.259-2.33a1.208,1.208,0,1,1-1.216,1.209,1.212,1.212,0,0,1,1.216-1.209" transform="translate(-0.31 -0.18)" fill="#004497"/><path d="M178.311,29.062a1.2,1.2,0,0,0-1.19-1.2.859.859,0,0,0-.125.008v-.009h-2.485v1.408h2.208v5.008h-5.69V33.3h-1.664v1.253h0a1.327,1.327,0,0,0,1.339,1.109l.073,0h5.944v.015h1.58V29.062Z" transform="translate(-0.311 -0.184)" fill="#004497"/><rect width="0.993" height="4.544" transform="translate(77.682 36.593)" fill="#004497"/><path d="M80.408,36.878h1.213l-1.69,2.075,1.69,2.389-1.194.021L78.78,38.893Z" transform="translate(-0.144 -0.244)" fill="#004497"/><path d="M96.482,41.295h1.031l1.411-3.062.873,2.213H98.151l-.337.828h3.3l-1.59-4.428H98.429Z" transform="translate(-0.177 -0.243)" fill="#004497"/><path d="M113.247,38.12H111.1a.954.954,0,0,0-.772,1.029s0,.867.772.969h1.134a.374.374,0,0,1,.275.355.337.337,0,0,1-.275.336h-1.807v.651h2.066s.774-.02.851-1a1.006,1.006,0,0,0-.851-1.011h-1.156a.347.347,0,0,1-.275-.316.359.359,0,0,1,.258-.394h1.908Z" transform="translate(-0.202 -0.252)" fill="#004497"/><path d="M115.487,38.049l-2.007.019-.017,3.38h.911V40.184h1.113c1.071.078,1.053-1.029,1.053-1.029a1.007,1.007,0,0,0-1.053-1.106m0,1.48h-1.113l.021-.828h1.092a.5.5,0,0,1,.258.454s-.019.357-.258.375" transform="translate(-0.208 -0.251)" fill="#004497"/><path d="M140.872,38.139h.672l1.135,3.321h-2.327l.24-.61h1.153l-.6-1.582-1.034,2.192h-.733Z" transform="translate(-0.256 -0.252)" fill="#004497"/><path d="M148.595,38.1h-1.528a1.576,1.576,0,0,0-1.333,1.659s-.021,1.5,1.309,1.7h1.552v-.73h-1.528s-.5-.039-.539-.95c0,0-.019-.81.539-1.047h1.528Z" transform="translate(-0.267 -0.252)" fill="#004497"/><path d="M148.818,38.049v3.376h.813v-1.4h1.153v1.4h.814V38.049h-.814v1.344H149.61V38.049Z" transform="translate(-0.273 -0.251)" fill="#004497"/><path d="M156.3,38.017v3.4h.833V39.34l1.468,2.075h.818V38.037h-.837v1.917l-1.489-1.937Z" transform="translate(-0.287 -0.251)" fill="#004497"/><path d="M165.608,37.97h.815v3.36h-.794Z" transform="translate(-0.304 -0.251)" fill="#004497"/><path d="M172.614,37.982V41.3h-1.768s-1.034-.08-1.211-.871V37.982h.873v2.41s.138.276.337.276h.957V37.961Z" transform="translate(-0.311 -0.251)" fill="#004497"/><path d="M178.09,38.618h-1.221c-.529.061-.553.735-.553.735h1.774v.624h-1.785c.023.491.578.711.578.711h1.207v.6h-1.453a1.624,1.624,0,0,1-1.182-1.607c0-1.556,1.172-1.7,1.172-1.7H178.1Z" transform="translate(-0.322 -0.251)" fill="#004497"/><rect width="1.066" height="4.503" transform="translate(154.104 36.618)" fill="#004497"/><path d="M139.315,38.8H138.1c-.528.062-.555.736-.555.736h1.775v.625h-1.788c.025.492.581.711.581.711h1.207v.6h-1.452a1.625,1.625,0,0,1-1.185-1.605c0-1.557,1.174-1.7,1.174-1.7h1.468Z" transform="translate(-0.251 -0.252)" fill="#004497"/><path d="M133.554,38.736h-1.219c-.531.061-.555.735-.555.735h1.774V40.1h-1.787c.027.489.579.707.579.707h1.208v.6H132.1a1.627,1.627,0,0,1-1.183-1.6c0-1.558,1.173-1.7,1.173-1.7h1.47Z" transform="translate(-0.24 -0.252)" fill="#004497"/><path d="M124.592,38.684h-1.22c-.531.062-.553.734-.553.734h1.773v.628h-1.786c.026.489.577.71.577.71h1.209v.6H123.14a1.623,1.623,0,0,1-1.185-1.6c0-1.558,1.176-1.706,1.176-1.706H124.6Z" transform="translate(-0.224 -0.251)" fill="#004497"/><path d="M103.643,38.73h-1.219c-.531.062-.556.736-.556.736h1.775v.626h-1.786c.024.492.578.71.578.71h1.208v.6h-1.455a1.622,1.622,0,0,1-1.181-1.605c0-1.557,1.17-1.7,1.17-1.7h1.472Z" transform="translate(-0.185 -0.252)" fill="#004497"/><path d="M90.313,38.725H89.09c-.527.06-.551.735-.551.735h1.774v.625H88.525c.024.492.581.71.581.71h1.207v.6H88.859a1.623,1.623,0,0,1-1.182-1.605c0-1.558,1.173-1.7,1.173-1.7h1.468Z" transform="translate(-0.161 -0.252)" fill="#004497"/><path d="M172.9,37.982h2.7V38.6h-.935v2.669h-.795V38.6H172.9Z" transform="translate(-0.317 -0.251)" fill="#004497"/><path d="M166.693,38.015h2.7v.612h-.93V41.3h-.793v-2.67h-.975Z" transform="translate(-0.306 -0.251)" fill="#004497"/><path d="M162.786,38.026h2.7v.611h-.937v2.668h-.794V38.637h-.971Z" transform="translate(-0.298 -0.251)" fill="#004497"/><path d="M82.78,38.139a1.649,1.649,0,1,0,1.733,1.648,1.689,1.689,0,0,0-1.733-1.648m-.017,2.724a1.106,1.106,0,1,1,.954-1.1,1.036,1.036,0,0,1-.954,1.1" transform="translate(-0.149 -0.252)" fill="#004497"/><path d="M108.588,38.107a1.649,1.649,0,1,0,1.729,1.647,1.691,1.691,0,0,0-1.729-1.647m-.02,2.723a1.106,1.106,0,1,1,.953-1.094,1.031,1.031,0,0,1-.953,1.094" transform="translate(-0.196 -0.252)" fill="#004497"/><path d="M136.624,38.147h-2.142a.955.955,0,0,0-.776,1.029s0,.87.776.968h1.132a.386.386,0,0,1,.277.357.336.336,0,0,1-.277.335H133.8v.652h2.066s.774-.02.852-1.005a1,1,0,0,0-.852-1.01H134.72s-.28-.06-.28-.315a.361.361,0,0,1,.259-.394h1.907Z" transform="translate(-0.245 -0.252)" fill="#004497"/><path d="M162.436,38.009H160.29a.954.954,0,0,0-.775,1.026s0,.869.775.969h1.131a.39.39,0,0,1,.281.359.336.336,0,0,1-.281.334h-1.806v.652h2.063s.777-.02.855-1.007a1,1,0,0,0-.855-1.007H160.53s-.28-.06-.28-.317a.36.36,0,0,1,.258-.393h1.906Z" transform="translate(-0.292 -0.251)" fill="#004497"/><path d="M117.548,38.095h.674l1.132,3.319h-2.326l.239-.612h1.153l-.6-1.582-1.032,2.194h-.736Z" transform="translate(-0.213 -0.252)" fill="#004497"/><path d="M122.06,38.011h-1.529a1.582,1.582,0,0,0-1.33,1.66s-.021,1.5,1.308,1.7h1.551V40.64h-1.529s-.5-.04-.539-.948c0,0-.018-.813.539-1.047h1.529Z" transform="translate(-0.219 -0.251)" fill="#004497"/><path d="M91.945,38.017h.694l1.168,3.321H91.416l.243-.61h1.187l-.616-1.583-1.06,2.193h-.756Z" transform="translate(-0.166 -0.251)" fill="#004497"/><path d="M145.822,41.443l-1.039-1.332a1.075,1.075,0,0,0,.894-.877,1.061,1.061,0,0,0-.989-1.162h-1.921l-.016,3.379h.827V39.688l0,.006v-.932h1.029a.436.436,0,0,1,.361.468c0,.424-.48.468-.48.468h-.906l1.215,1.744Z" transform="translate(-0.262 -0.252)" fill="#004497"/><path d="M143.583,39.709h0l0,0Z" transform="translate(-0.263 -0.262)" fill="#004497"/><path d="M106.97,41.438,105.927,40.1a1.078,1.078,0,0,0,.9-.877,1.064,1.064,0,0,0-.99-1.164h-1.92l-.018,3.38h.827v-1.76l.006.007v-.935h1.024a.438.438,0,0,1,.365.471c0,.423-.483.469-.483.469h-.9l1.212,1.743Z" transform="translate(-0.191 -0.251)" fill="#004497"/><path d="M104.731,39.705h0l0,0Z" transform="translate(-0.192 -0.262)" fill="#004497"/><path d="M87.779,41.459l-1.04-1.332a1.079,1.079,0,0,0,.9-.878,1.061,1.061,0,0,0-.991-1.162h-1.92l-.015,3.379h.826V39.7l0,.008,0-.932h1.027a.433.433,0,0,1,.363.468c0,.424-.48.467-.48.467h-.906l1.213,1.745Z" transform="translate(-0.155 -0.252)" fill="#004497"/><path d="M85.542,39.725h0l0,0Z" transform="translate(-0.157 -0.262)" fill="#004497"/><path d="M131.248,41.491l-1.308-1.757a1.407,1.407,0,0,0,1.13-1.159,1.368,1.368,0,0,0-1.245-1.534h-2.414l-.022,4.46h1.04V39.177l0,.009V37.954h1.29a.565.565,0,0,1,.458.619c0,.561-.607.618-.607.618H128.44l1.522,2.3Z" transform="translate(-0.234 -0.245)" fill="#004497"/><path d="M128.437,39.2h.006l-.006,0Z" transform="translate(-0.236 -0.259)" fill="#004497"/></g></g></svg>